<?xml version="1.0" encoding="utf-8"?>
<!-- Generator: Adobe Illustrator 24.1.2, SVG Export Plug-In . SVG Version: 6.00 Build 0)  -->
<svg version="1.1" id="Capa_1" xmlns="http://www.w3.org/2000/svg" xmlns:xlink="http://www.w3.org/1999/xlink" x="0px" y="0px"
	 viewBox="0 0 1823 500" style="enable-background:new 0 0 1823 500;" xml:space="preserve">
<style type="text/css">
	.st0{fill:#FFFFFF;}
</style>
<g>
	<path class="st0" d="M218.1,63.81c-11.53-5.83-24.46-9.89-38.78-12.2c-14.33-2.3-28.65-2.97-42.97-2
		c-14.33,0.97-26.22,3.16-35.69,6.55c-5.83,2.19-11.17,5.1-16.02,8.74c-4.86,3.64-8.86,8.62-12.02,14.93
		c-1.22,1.46-2.61,3.82-4.19,7.1c-1.58,3.28-2.79,6.55-3.64,9.83c-0.85,3.28-1.09,6.07-0.73,8.38c0.36,2.31,1.88,2.98,4.55,2
		c5.83-4.37,13.17-8.56,22.03-12.56c8.86-4.01,18.33-7.4,28.4-10.2c10.07-2.79,20.27-4.85,30.59-6.19
		c10.31-1.33,20.08-1.46,29.31-0.36c9.22,1.09,17.3,3.58,24.21,7.46c6.92,3.89,12.07,9.59,15.48,17.11
		c1.21,6.55-0.55,13.35-5.28,20.39c-4.73,7.04-10.92,13.47-18.57,19.3c-7.65,5.83-16.02,10.68-25.13,14.57
		c-9.1,3.89-17.3,5.83-24.58,5.83c-1.46,0-2.79,0.18-4,0.55c-1.22,0.36-2.55,0.55-4.01,0.55c1.94-4.12,3.88-8.31,5.83-12.56
		c1.94-4.24,3.52-8.8,4.73-13.65c0.48-4.12-0.31-7.95-2.37-11.47c-2.06-3.52-4.61-6.31-7.65-8.37c-3.04-2.06-6.25-3.03-9.65-2.91
		c-3.4,0.13-6.19,1.88-8.38,5.28c-3.16,5.83-6.25,11.78-9.28,17.84c-3.04,6.07-6.01,12.26-8.92,18.57
		c-5.59,10.2-10.74,20.52-15.48,30.95c-4.73,10.44-9.78,21-15.11,31.68c-1.7,4.13-3.16,8.32-4.37,12.56
		c-1.22,4.25-2.43,8.56-3.64,12.93c-0.73,2.18-1.76,5.28-3.09,9.28c-1.34,4.01-2.49,8.19-3.46,12.56
		c-0.97,4.37-1.58,8.56-1.82,12.56c-0.25,4.01,0.24,7.23,1.46,9.65c0.48,3.64,1.7,5.28,3.64,4.92c1.94-0.36,3.94-1.58,6.01-3.64
		c2.06-2.06,4.01-4.37,5.83-6.92c1.82-2.55,2.97-4.19,3.46-4.92c10.2-12.86,18.81-26.82,25.85-41.88
		c7.04-15.05,14.44-29.86,22.21-44.42c0.24,0,0.48-0.12,0.73-0.36c0.48-0.48,0.85-0.73,1.09-0.73c3.64-0.48,7.28-0.78,10.92-0.91
		c3.64-0.12,7.16-0.42,10.56-0.91c10.2-0.97,19.24-1.64,27.13-2c7.89-0.37,14.62,0.06,20.21,1.27c5.58,1.22,10.01,3.58,13.29,7.1
		c3.28,3.52,5.52,8.68,6.74,15.48c-0.73,4.37-2.13,8.92-4.19,13.65c-2.07,4.73-4.49,9.35-7.28,13.84c-2.79,4.49-5.83,8.86-9.1,13.11
		c-3.28,4.25-6.37,8.07-9.29,11.47c-11.41,11.41-23.85,21.12-37.32,29.13c-13.47,8.01-28.47,13.6-44.97,16.75
		c-5.1,0.73-10.44,1.27-16.02,1.64c-5.59,0.37-11.11,0.13-16.57-0.73c-5.46-0.85-10.56-2.55-15.29-5.1
		c-4.73-2.55-8.8-6.25-12.2-11.11c-3.89-5.58-5.95-11.77-6.19-18.57c-0.24-6.79,0.67-13.59,2.73-20.39
		c2.06-6.79,5.04-13.35,8.92-19.66c3.88-6.31,7.88-12.02,12.02-17.11c0.73-0.73,1.46-1.7,2.18-2.91c0.73-1.21,1.7-2.42,2.91-3.64
		H62.8c-1.22,0-2.25,0.18-3.09,0.55c-0.85,0.36-1.88,0.79-3.09,1.27c-6.32,1.22-11.96,3.46-16.93,6.74
		c-4.98,3.28-9.77,6.98-14.38,11.11c-6.55,5.1-10.92,10.92-13.11,17.48c-2.19,6.55-2.73,13.6-1.64,21.12
		c1.09,7.53,3.4,15.11,6.92,22.76c3.52,7.65,7.7,15.11,12.56,22.39c3.4,7.04,7.28,12.62,11.65,16.75c4.37,4.12,9.22,7.28,14.57,9.47
		c5.34,2.18,11.16,3.52,17.48,4.01c6.31,0.48,13.11,0.6,20.39,0.36c21.36-2.67,41.57-8.56,60.63-17.66
		c19.05-9.1,36.1-22.03,51.16-38.78c5.83-4.85,11.23-10.74,16.21-17.66c4.97-6.92,9.28-14.02,12.92-21.3
		c2.67-6.55,4.73-13.77,6.19-21.67c1.46-7.89,0.97-15.84-1.46-23.85c-0.97-4.61-2.91-9.16-5.82-13.65
		c-2.91-4.49-6.44-8.31-10.56-11.47c-3.4-2.67-6.92-4.79-10.56-6.37c-3.64-1.58-7.53-3.21-11.65-4.92c0.97-0.48,1.7-0.85,2.18-1.09
		c0.48-0.24,0.97-0.6,1.46-1.09c6.55-4.12,12.62-8.98,18.21-14.57c5.58-5.58,10.13-11.65,13.65-18.21
		c3.52-6.55,5.82-13.65,6.92-21.3s0.42-15.48-2-23.49C237.46,77.65,229.63,69.63,218.1,63.81z"/>
	<path class="st0" d="M885.72,236.04c-1.95-0.24-4.31-0.18-7.1,0.18c-2.79,0.36-4.68,0.91-5.64,1.64
		c-9.96,4.37-19.24,9.35-27.86,14.93c-8.62,5.59-17.42,11.9-26.4,18.94c1.94-8.74,3.28-18.03,4.01-27.86
		c0.73-9.83,0-18.99-2.18-27.49c-0.49-1.94-1.58-3.7-3.28-5.28c-1.7-1.58-3.52-2.85-5.46-3.82c-1.95-0.97-3.82-1.51-5.64-1.64
		c-1.82-0.12-2.98,0.31-3.46,1.27c-1.7,2.91-3.89,7.16-6.55,12.74c-2.67,5.59-5.64,11.65-8.92,18.21
		c-3.28,6.55-6.62,13.17-10.01,19.85c-3.4,6.68-6.68,12.51-9.83,17.48c-3.16,4.98-6.13,8.74-8.92,11.29
		c-2.79,2.55-5.04,2.98-6.74,1.28c-1.95-1.7-2.18-5.76-0.73-12.2c1.46-6.43,3.4-13.41,5.83-20.94c2.42-7.52,4.67-14.75,6.74-21.67
		c2.06-6.92,2.73-11.95,2-15.11c-0.49-1.7-1.76-3.4-3.82-5.1c-2.06-1.7-4.49-3.09-7.28-4.19c-2.79-1.09-5.46-1.64-8.01-1.64
		c-2.55,0-4.43,1.09-5.64,3.28c-1.46,5.1-2.86,10.92-4.19,17.48c-1.33,6.55-2.37,13.29-3.1,20.21c-0.35,3.3-0.61,6.59-0.79,9.87
		c-1.56,2.12-4.32,6.04-8.31,11.8c-4.37,6.32-9.53,13.35-15.48,21.12c-5.95,7.77-12.2,15.66-18.75,23.67
		c-6.55,8.01-12.81,14.8-18.75,20.39c-5.95,5.58-11.17,9.22-15.66,10.92c-4.49,1.7-7.47,0.24-8.92-4.37
		c-1.22-1.7-1.15-6.25,0.18-13.65c1.33-7.41,3.46-16.63,6.37-27.67c2.91-11.04,6.43-23.36,10.56-36.96
		c4.12-13.59,8.49-27.43,13.11-41.51c4.61-14.08,9.22-27.79,13.84-41.15c4.61-13.35,8.86-25.36,12.74-36.05
		c0-0.24,0.12-0.48,0.37-0.73c0.24-0.24,0.36-0.48,0.36-0.73c0.73-1.21,1.03-1.94,0.91-2.18c-0.13-0.24,0.42-0.48,1.64-0.73
		c13.84-1.21,27.91-3.09,42.24-5.64c14.32-2.55,29.13-6.25,44.42-11.11c5.34-1.46,8.49-2.61,9.47-3.46c0.97-0.85,0.55-1.51-1.27-2
		c-1.82-0.48-4.43-0.78-7.83-0.91c-3.4-0.12-6.8-0.18-10.2-0.18c-10.44,0-21.18,0.06-32.23,0.18c-11.05,0.13-24.21,0.31-39.51,0.55
		c1.94-7.77,4.24-14.68,6.92-20.75c2.67-6.07,4.37-12.26,5.1-18.57c0.24-2.18-0.85-4.55-3.28-7.1c-2.43-2.55-5.28-4.67-8.56-6.37
		c-3.28-1.7-6.44-2.73-9.47-3.09c-3.04-0.36-5.04,0.55-6.01,2.73c-1.22,2.91-2.61,6.44-4.19,10.56c-1.58,4.13-3.22,8.5-4.92,13.11
		c-1.7,4.61-3.4,9.35-5.1,14.2c-1.7,4.86-3.28,9.47-4.73,13.84c0,0.49-0.36,0.85-1.09,1.09c-1.7,0.73-5.41,1.15-11.11,1.27
		c-5.71,0.13-11.9,0.06-18.57-0.18c-6.68-0.24-13.05-0.6-19.12-1.09c-6.07-0.48-10.43-0.73-13.11-0.73c-4.37,0-7.7,0.79-10.01,2.37
		c-2.3,1.58-3.52,3.46-3.64,5.64c-0.12,2.18,0.73,4.37,2.55,6.55c1.82,2.19,4.68,3.77,8.56,4.73c4.37,1.22,9.05,2.06,14.02,2.55
		c4.98,0.49,10.01,0.79,15.11,0.91c5.1,0.13,10.2,0.25,15.29,0.37c5.1,0.12,10.07,0.31,14.93,0.55c-3.16,9.23-6.25,19.61-9.29,31.13
		c-3.04,11.53-6.37,22.76-10.01,33.68c-3.4,12.38-6.86,24.7-10.38,36.96c-1.5,5.23-3.04,10.49-4.61,15.78
		c-5.61,6.16-11.65,12.43-18.15,18.81c-6.8,6.68-13.72,12.62-20.76,17.84c-7.04,5.22-13.47,8.32-19.3,9.28
		c-4.13,0.73-6.19-0.97-6.19-5.1c-0.49-3.64-0.18-7.83,0.91-12.56c1.09-4.73,2.55-9.59,4.37-14.57c1.82-4.97,3.82-9.83,6.01-14.57
		c2.19-4.73,4.12-9.04,5.83-12.93c3.15-6.06,6.49-11.04,10.01-14.93c3.52-3.88,7.46-8.61,11.83-14.2c1.7-2.42,2-5.28,0.91-8.56
		c-1.09-3.28-2.98-6.25-5.64-8.92c-2.67-2.67-5.71-4.67-9.1-6.01c-3.4-1.33-6.32-1.51-8.74-0.55c-4.61,4.61-8.07,9.29-10.38,14.02
		c-2.31,4.73-5.16,10.14-8.56,16.2c-2.67,3.4-5.89,7.83-9.65,13.29c-3.77,5.46-7.83,11.11-12.2,16.93
		c-4.37,5.83-8.68,11.35-12.93,16.57c-4.25,5.22-8.14,9.29-11.65,12.2c-3.52,2.91-6.32,4.25-8.38,4.01
		c-2.06-0.24-3.09-3.03-3.09-8.37c0.24-2.42,1.33-6.19,3.28-11.29c1.94-5.1,4.19-10.5,6.74-16.2c2.55-5.7,5.04-11.23,7.47-16.57
		c2.42-5.34,4.24-9.47,5.46-12.38c2.18-4.12,2.55-8.38,1.09-12.74c-1.46-4.37-3.58-7.89-6.37-10.56c-2.79-2.67-5.89-4.01-9.28-4.01
		c-3.4,0-5.95,2.18-7.65,6.55c-1.46,2.91-3.22,6.74-5.28,11.47c-2.06,4.73-4.19,9.78-6.37,15.11c-1.83,4.47-3.6,8.93-5.34,13.39
		c-0.16,0.15-0.34,0.3-0.48,0.44c-2.91,2.43-6.55,6.19-10.92,11.29c-4.37,5.1-9.05,10.44-14.02,16.02
		c-4.98,5.59-10.01,10.87-15.11,15.84c-5.1,4.98-9.96,8.44-14.57,10.38c-5.83,2.18-9.83,2.31-12.02,0.36
		c-2.19-1.94-2.91-6.07-2.19-12.38c0.73-4.12,2.49-8.86,5.28-14.2c2.79-5.34,5.04-9.95,6.74-13.84c1.46-3.15,1.76-6.25,0.91-9.29
		c-0.85-3.03-2.43-5.58-4.73-7.65c-2.31-2.06-5.04-3.21-8.19-3.46c-3.16-0.24-6.32,0.85-9.47,3.28c-0.24,0.24-1.88,2.37-4.92,6.37
		c-3.04,4.01-6.62,8.62-10.74,13.84c-4.13,5.22-8.5,10.5-13.11,15.84c-4.61,5.34-8.74,9.53-12.38,12.56
		c-3.64,3.04-6.32,4.37-8.01,4.01c-1.7-0.36-1.82-3.7-0.36-10.01c0.97-3.88,3.4-9.65,7.28-17.3c3.88-7.65,8.49-15.29,13.84-22.94
		c5.34-7.65,10.92-14.32,16.75-20.03c5.83-5.7,11.04-8.56,15.66-8.56c2.19,0,3.94,0.55,5.28,1.64c1.33,1.09,2.37,2.31,3.09,3.64
		c0.73,1.34,1.27,2.67,1.64,4.01c0.37,1.34,0.67,2.37,0.91,3.09c0.73,1.46,1.46,2.13,2.19,2c0.73-0.12,1.51-0.67,2.37-1.64
		c0.85-0.97,1.58-2.18,2.19-3.64c0.6-1.46,1.15-2.91,1.64-4.37c0.97-3.88,0.6-7.47-1.09-10.74c-1.7-3.28-4.13-6.01-7.28-8.19
		c-3.16-2.18-6.86-3.58-11.11-4.19c-4.25-0.6-8.32-0.42-12.2,0.55c-11.65,2.43-21.61,8.01-29.86,16.75
		c-8.26,8.74-15.05,18.69-20.39,29.86c-2.17,4.69-4.1,9.43-5.82,14.23c-1.64,1.51-3.45,3.19-5.47,5.07
		c-3.64,3.4-7.41,6.92-11.29,10.56c-3.89,3.64-7.77,7.1-11.65,10.38c-3.89,3.28-7.41,6.01-10.56,8.19
		c-2.67,1.46-6.19,3.16-10.56,5.1c-4.37,1.95-8.68,3.1-12.93,3.46c-4.25,0.36-7.71-0.36-10.38-2.18c-2.67-1.82-3.64-5.88-2.91-12.2
		c0-2.42,1.33-5.4,4.01-8.92c2.67-3.52,5.83-6.98,9.47-10.38c3.64-3.4,7.4-6.67,11.29-9.83c3.88-3.15,6.92-5.7,9.1-7.65
		c4.37-4.12,7.47-8.07,9.29-11.83c1.82-3.76,3.21-8.31,4.19-13.65c1.21-5.58,0.42-10.31-2.37-14.2c-2.79-3.88-6.74-6.43-11.83-7.65
		c-9.96,0.25-18.63,3.04-26.04,8.38c-7.41,5.34-13.54,12.2-18.39,20.57c-4.85,8.37-8.49,17.54-10.92,27.49
		c-2.42,9.96-3.4,19.54-2.91,28.77c0,12.14,3.58,20.88,10.74,26.22c7.16,5.34,16.32,7.65,27.49,6.92
		c6.31-0.97,12.44-3.09,18.39-6.37c5.95-3.28,11.65-7.16,17.11-11.65c5.46-4.49,10.68-9.41,15.66-14.75
		c1.54-1.65,3.04-3.27,4.52-4.88c-0.11,0.53-0.23,1.07-0.33,1.6c-0.24,2.43-0.12,5.71,0.36,9.83c0.49,4.13,1.82,7.28,4.01,9.47
		c2.18,2.18,4.49,4.07,6.92,5.64c2.42,1.58,5.1,2.61,8.01,3.09c3.88,0.73,7.58,0.67,11.11-0.18c3.52-0.85,6.86-2.06,10.01-3.64
		c3.15-1.58,6.07-3.4,8.74-5.46c2.67-2.06,5.1-3.94,7.28-5.64c0.73,3.89,2.06,7.53,4.01,10.92c1.94,3.4,4.49,6.19,7.65,8.37
		c3.15,2.18,6.67,3.58,10.56,4.19c3.88,0.6,8.25,0.06,13.11-1.64c7.77-2.91,14.99-6.86,21.67-11.83
		c6.67-4.97,12.74-10.68,18.21-17.11c3.26-3.84,6.3-7.9,9.18-12.13c0.17,2.17,0.62,4.27,1.38,6.31c1.58,4.25,3.95,8.56,7.1,12.93
		c2.19,2.91,4.19,5.46,6.01,7.65c1.82,2.18,3.7,3.82,5.64,4.92c1.94,1.09,4.06,1.52,6.37,1.27c2.3-0.24,5.04-1.09,8.19-2.55
		c3.88-1.94,7.65-4.24,11.29-6.92c3.64-2.67,7.28-5.83,10.92-9.47c0.48-0.24,1.27-0.91,2.37-2c1.09-1.09,2.24-2.24,3.46-3.46
		c1.21-1.21,2.3-2.3,3.28-3.28c0.97-0.97,1.7-1.7,2.18-2.18c-2.67,7.04-3.82,13.9-3.46,20.57c0.36,6.68,2.49,12.44,6.37,17.3
		c2.18,3.15,4.85,5.34,8.01,6.55c3.15,1.21,6.49,1.82,10.01,1.82c3.52,0,7.04-0.55,10.56-1.64c3.52-1.09,6.74-2.37,9.65-3.82
		c6.31-3.4,11.71-7.22,16.2-11.47c4.49-4.24,9.29-9.16,14.38-14.75c0.6-0.73,1.22-1.53,1.86-2.39c-0.68,2.4-1.42,5.07-2.22,8.04
		c-1.94,7.16-3.46,14.57-4.55,22.21c-1.09,7.65-1.39,14.87-0.91,21.67c0.49,6.79,2.55,12.02,6.19,15.66
		c3.89,3.88,8.38,5.76,13.47,5.64c5.1-0.12,10.68-0.91,16.75-2.37c6.79-1.46,13.53-4.73,20.21-9.83
		c6.67-5.1,13.23-11.05,19.66-17.84c6.43-6.8,12.44-14.14,18.03-22.03c5.58-7.89,10.68-15.53,15.29-22.94
		c0.99-1.59,1.93-3.13,2.85-4.66c0.21,1.93,0.46,3.8,0.78,5.57c1.22,6.32,4.55,11.05,10.01,14.2c5.46,3.16,11.34,4.13,17.66,2.91
		c2.91-0.24,5.95-2.37,9.1-6.37c3.15-4.01,6.31-8.74,9.47-14.2c3.15-5.46,6.19-11.16,9.1-17.11c2.91-5.95,5.58-11.11,8.01-15.48
		c0.48,0.97,0.55,3.7,0.18,8.19c-0.36,4.49-1.04,9.29-2,14.38c-0.97,5.1-2.18,9.89-3.64,14.38c-1.46,4.49-3.04,7.35-4.73,8.56
		c-13.11,14.08-25.61,27.98-37.51,41.69c-11.9,13.71-22.76,27.43-32.59,41.15c-9.83,13.71-18.26,27.67-25.31,41.88
		c-7.04,14.2-12.14,28.82-15.29,43.88c0.24,9.95,2.25,17.78,6.01,23.49c3.77,5.7,8.5,9.29,14.2,10.74c5.71,1.46,11.96,0.78,18.75-2
		c6.8-2.79,13.23-7.71,19.3-14.75c9.47-10.92,18.51-23.98,27.13-39.14c8.61-15.17,16.39-31.13,23.3-47.88
		c6.92-16.75,12.8-33.38,17.66-49.89c4.85-16.51,8.25-31.56,10.2-45.15c0.48-2.67,1.58-4.61,3.28-5.83
		c9.95-8.01,20.63-16.51,32.04-25.49c11.41-8.98,22.7-16.99,33.86-24.03c4.61-2.91,6.86-5.04,6.74-6.37
		C888.69,237.08,887.66,236.29,885.72,236.04z M294.93,222.21c3.76-3.88,8.92-7.04,15.48-9.47c-1.95,5.83-5.04,10.74-9.29,14.75
		c-4.25,4.01-9.05,7.95-14.38,11.83C288.43,231.8,291.16,226.09,294.93,222.21z M773.2,342.73c-3.64,9.71-8.19,20.57-13.65,32.59
		c-5.46,12.02-11.47,24.4-18.02,37.14c-6.55,12.74-12.98,24.27-19.3,34.59c-6.31,10.31-12.02,18.57-17.11,24.76
		c-5.1,6.19-8.98,8.8-11.65,7.83c-2.91-2.91-3.7-7.95-2.37-15.11c1.34-7.16,4.13-15.48,8.37-24.94c4.25-9.47,9.59-19.66,16.02-30.59
		c6.44-10.92,13.29-21.67,20.57-32.23c7.28-10.56,14.68-20.64,22.21-30.22c7.52-9.59,14.44-17.78,20.76-24.58
		C778.79,326.1,776.84,333.02,773.2,342.73z"/>
	<path class="st0" d="M1248.02,206.37c-1.22-3.52-2.98-6.67-5.28-9.47c-2.31-2.79-5.41-4.79-9.29-6.01
		c-7.53-0.73-14.75,0.91-21.67,4.92c-6.92,4.01-13.47,9.1-19.66,15.29c-6.19,6.19-11.9,12.87-17.11,20.03
		c-5.22,7.16-10.01,13.42-14.38,18.75c1.94-6.55,3.7-13.23,5.28-20.03c1.58-6.79,1.88-12.62,0.91-17.48
		c-0.49-1.94-1.58-3.4-3.28-4.37c-1.7-0.97-3.64-1.39-5.83-1.27c-2.19,0.12-4.19,0.73-6.01,1.82c-1.82,1.09-2.98,2.61-3.46,4.55
		c-1.37,5.86-2.69,11.96-3.98,18.29c-1.96,0.55-3.96,1.18-6.03,1.92c-3.77,1.34-7.35,2.49-10.74,3.46c-2.91,0.73-6.07,1.7-9.47,2.91
		c-3.4,1.22-6.55,1.95-9.47,2.18c0.24-1.46,0.6-3.64,1.09-6.55c0.48-2.91,0.6-6.13,0.36-9.65c-0.25-3.52-0.97-7.16-2.18-10.92
		c-1.22-3.76-3.28-7.22-6.19-10.38c-3.4-4.12-7.35-6.92-11.83-8.38c-4.49-1.46-9.41-1.7-14.75-0.73
		c-8.5,0.97-15.97,4.55-22.39,10.74c-6.44,6.19-11.71,12.93-15.84,20.21c-1.46,2.43-2.55,5.1-3.28,8.01
		c-0.73,2.91-1.46,5.71-2.18,8.38c-0.48,0.73-1.03,1.22-1.64,1.46c-0.6,0.24-1.15,0.49-1.64,0.73c-0.48,0.24-0.97,0.67-1.46,1.27
		c-0.48,0.61-0.85,1.76-1.09,3.46c-0.59,2.22-1.14,4.82-1.64,7.81c-5.85,0.32-11.62,0.57-17.29,0.75
		c-11.65,0.36-23.55-1.03-35.69-4.19c0.24-0.73,0.36-1.33,0.36-1.82c11.89-15.78,22.82-31.98,32.77-48.61
		c9.95-16.63,17.84-35.5,23.67-56.62c1.94-6.55,3.09-13.23,3.46-20.03c0.36-6.79,0.55-13.35,0.55-19.66v-5.83
		c1.21-3.15,0.91-6.01-0.91-8.56c-1.82-2.55-4.43-3.82-7.83-3.82c-3.64-0.48-6.8,0.31-9.47,2.37c-2.67,2.07-5.1,4.43-7.28,7.1
		c-9.96,14.33-19.24,30.35-27.86,48.06c-8.62,17.72-16.45,36.48-23.49,56.26c-7.04,19.79-13.17,40.12-18.39,60.99
		c-5.22,20.88-9.29,41.51-12.2,61.9c-0.97,10.92-1.51,21.97-1.64,33.14c-0.12,11.16,2.61,22.21,8.19,33.14
		c2.18,4.12,5.16,6.55,8.92,7.28c3.76,0.73,7.7,0.97,11.83,0.73c5.34-1.7,9.89-5.22,13.65-10.56c3.76-5.34,6.79-11.72,9.1-19.12
		c2.3-7.41,3.94-15.54,4.92-24.4c0.97-8.86,1.51-17.84,1.64-26.95c0.12-9.1-0.24-17.9-1.09-26.4c-0.85-8.49-1.88-16.02-3.09-22.58
		c12.14,2.67,23.73,3.16,34.78,1.46c3.65-0.56,7.3-1.38,10.96-2.42c-0.26,3.97-0.29,7.99-0.04,12.07
		c0.36,5.95,1.46,11.47,3.28,16.57c1.82,5.1,4.55,8.86,8.19,11.29c4.85,3.89,10.68,5.83,17.48,5.83c4.85,0,9.89-2.18,15.11-6.55
		c5.22-4.37,10.2-9.59,14.93-15.66c4.73-6.07,9.04-12.32,12.93-18.75c3.88-6.43,6.92-11.59,9.1-15.48c5.1-2.67,10.5-4.73,16.2-6.19
		c5.7-1.46,11.47-3.52,17.3-6.19c1.19-0.72,2.91-1.9,5.16-3.55c-1.14,5.92-2.26,11.84-3.34,17.75c-1.46,8.01-2.97,15.66-4.55,22.94
		c-1.58,7.28-3.21,13.84-4.92,19.66c-1.21,3.16-1.46,6.13-0.73,8.92c0.73,2.79,2.43,4.67,5.1,5.64c2.67,0.97,4.98,0.36,6.92-1.82
		c6.55-9.22,13.11-19.17,19.66-29.86c6.55-10.68,13.29-20.99,20.21-30.95c6.92-9.95,14.26-18.99,22.03-27.13
		c7.77-8.13,16.26-14.26,25.49-18.39c-3.4,4.86-6.44,9.96-9.1,15.29c-2.67,5.34-4.61,10.8-5.83,16.39
		c-1.22,5.59-1.4,11.11-0.55,16.57c0.85,5.46,3.21,10.87,7.1,16.2c1.21,1.46,3.28,2.55,6.19,3.28c2.91,0.73,5.83,1.03,8.74,0.91
		c2.91-0.12,5.22-0.67,6.92-1.64c1.69-0.97,1.82-2.42,0.36-4.37c-3.64-3.15-5.59-6.74-5.83-10.74c-0.25-4.01,0.3-8.07,1.64-12.2
		c1.33-4.12,3.15-8.19,5.46-12.2c2.3-4.01,4.31-7.7,6.01-11.11c0.73-2.42,1.03-5.34,0.91-8.74
		C1249.9,213.35,1249.24,209.89,1248.02,206.37z M982.94,207.28c3.88-10.68,8.25-21.97,13.11-33.86
		c4.85-11.89,9.89-23.3,15.11-34.23c5.22-10.92,10.01-19.17,14.38-24.76c-1.46,8.98-3.77,18.7-6.92,29.13
		c-3.16,10.44-6.98,20.94-11.47,31.5c-4.49,10.56-9.53,20.76-15.11,30.59c-5.59,9.83-11.41,18.39-17.48,25.67
		C976.26,225.97,979.05,217.96,982.94,207.28z M963.09,303.23c-0.12,6.43-0.49,13.11-1.09,20.03c-0.61,6.92-1.52,13.17-2.73,18.75
		c-1.22,5.58-2.73,10.01-4.55,13.29c-1.82,3.28-3.82,4.55-6.01,3.82c-0.49-14.57,0.55-28.58,3.09-42.06
		c2.55-13.47,5.15-27.13,7.83-40.96c1.21,1.7,2.12,5.04,2.73,10.01C962.97,291.09,963.21,296.8,963.09,303.23z M1079.61,274.09
		c-2.07,4.01-4.49,7.95-7.28,11.83c-2.79,3.89-5.71,7.34-8.74,10.38c-3.04,3.04-5.77,4.8-8.19,5.28c-1.22-1.94-2.18-4.61-2.91-8.01
		c-0.73-3.4-1.22-6.98-1.46-10.74c-0.24-3.76-0.24-7.4,0-10.92c0.24-3.52,0.73-6.37,1.46-8.56c4.85,0.97,10.07,1.46,15.66,1.46
		c5.58,0,10.8-0.24,15.66-0.73C1083.07,266.76,1081.67,270.09,1079.61,274.09z M1089.99,243.32c0,0.49-0.25,0.97-0.73,1.46
		c-0.49,0.49-0.97,0.73-1.46,0.73c-1.22,0-3.46,0.25-6.74,0.73c-3.28,0.49-6.68,0.79-10.19,0.91c-3.52,0.12-6.68,0.06-9.47-0.18
		c-2.79-0.24-4.19-0.97-4.19-2.18c0.24-2.67-0.85-5.1-3.28-7.28c-0.49-0.48-0.73-1.33-0.73-2.55c2.67-4.12,5.46-8.13,8.37-12.02
		c2.91-3.88,6.79-7.28,11.65-10.2c2.42-1.21,4.97-1.7,7.65-1.46c2.67,0.24,4.85,1.34,6.55,3.28c3.4,3.4,5.16,7.89,5.28,13.47
		C1092.84,233.62,1091.93,238.72,1089.99,243.32z"/>
	<path class="st0" d="M1588.85,204.73c-1.46-5.83-4.86-9.59-10.19-11.29c-5.34-1.7-10.81-2.91-16.39-3.64
		c0-0.24,0.06-0.67,0.18-1.27c0.12-0.6,0.18-1.15,0.18-1.64c4.13-20.39,8.8-40.72,14.02-60.99c5.22-20.27,8.8-41.33,10.74-63.18
		c0-2.67-0.85-5.15-2.55-7.47c-1.7-2.3-3.52-3.82-5.46-4.55c-6.8-1.7-12.14,0.25-16.02,5.83c-8.26,11.65-16.39,23.25-24.4,34.77
		c-8.01,11.53-16.33,22.88-24.94,34.05c-8.62,11.17-17.6,22.09-26.95,32.77c-9.35,10.69-19.48,21.12-30.4,31.32
		c-0.97,0.49-1.88,0.97-2.73,1.46c-0.85,0.49-1.88,0.73-3.1,0.73c-12.87,0-25.8,0.36-38.78,1.09c-12.99,0.73-27.25,1.22-42.79,1.46
		c-3.64,0.49-7.1,0.91-10.38,1.27c-3.28,0.37-6.74,0.79-10.38,1.28c-1.22,0-2.73,0.18-4.55,0.55c-1.82,0.37-1.88,1.52-0.18,3.46
		c3.15,1.7,6.43,3.04,9.83,4.01c3.4,0.97,6.79,2.06,10.2,3.28c10.19,1.95,20.21,4.19,30.04,6.74c9.83,2.55,20.08,4.55,30.77,6.01
		c-1.22,0.97-2.06,1.64-2.55,2c-0.49,0.37-0.97,0.79-1.46,1.28c-13.11,11.9-26.46,23.73-40.05,35.5
		c-13.6,11.78-27.67,22.88-42.24,33.32c-1.94,1.46-3.58,3.1-4.92,4.92c-1.33,1.82-1.39,3.34-0.18,4.55
		c2.91,2.91,6.07,4.13,9.47,3.64c11.89-2.42,22.7-6.61,32.41-12.56c9.71-5.95,18.93-12.68,27.67-20.21
		c8.74-7.52,17.42-15.35,26.04-23.49c8.61-8.13,17.9-15.6,27.86-22.39c4.13-2.42,6.92-3.64,8.37-3.64c2.18,0,6.01-0.06,11.47-0.18
		c5.46-0.12,11.22-0.24,17.3-0.36c6.07-0.12,11.65-0.12,16.75,0c5.1,0.12,8.25,0.43,9.47,0.91v1.09c-1.95,8.26-3.4,16.63-4.37,25.13
		c-0.97,8.5-1.7,17.11-2.18,25.85c0,21.36,2.3,42.72,6.92,64.09c0.48,1.21,1.09,2.3,1.82,3.28c0.73,0.97,1.94,1.46,3.64,1.46
		c1.21,0,2.18-0.61,2.91-1.82c0.73-1.22,1.33-2.43,1.82-3.64c4.12-18.93,7.89-38.42,11.29-58.44c3.4-20.03,7.89-39.26,13.47-57.71
		c0-0.48,0.24-0.97,0.73-1.46c0.48-0.48,0.85-0.73,1.09-0.73c4.85-0.73,9.52-1.46,14.02-2.18c4.49-0.73,8.92-2.18,13.29-4.37
		C1588.36,211.89,1589.81,208.61,1588.85,204.73z M1532.77,166.31c-1.46,7.65-3.52,15.36-6.19,23.12l-0.73,0.73
		c-0.25,0.24-0.49,0.36-0.73,0.36c-4.13,0-9.59,0.18-16.39,0.55c-6.8,0.36-12.26,0.55-16.39,0.55h-0.36
		c2.67-3.15,6.01-6.86,10.01-11.11c4.01-4.24,8.19-8.56,12.56-12.93c4.37-4.37,8.61-8.61,12.74-12.74
		c4.13-4.12,7.65-7.89,10.56-11.29C1535.92,151.08,1534.23,158.66,1532.77,166.31z"/>
	<path class="st0" d="M1706.46,313.6c1.94-8.98,4.19-18.51,6.74-28.58c2.55-10.07,5.28-20.08,8.19-30.04
		c2.91-9.95,5.83-19.36,8.74-28.22c2.91-8.86,5.58-16.57,8.01-23.12c0.48-0.97,0.91-1.94,1.27-2.91c0.36-0.97,0.91-1.82,1.64-2.55
		c8.5-10.43,16.51-21.48,24.03-33.14c7.52-11.65,14.32-23.79,20.39-36.41c6.07-12.62,11.22-25.73,15.48-39.33
		c4.24-13.59,7.22-27.55,8.92-41.88c0.73-6.55-1.58-11.04-6.92-13.47c-2.67-1.21-5.28-1.33-7.83-0.36
		c-2.55,0.97-4.68,2.55-6.37,4.73c-4.61,5.1-8.98,10.62-13.11,16.57c-4.13,5.95-8.25,12.2-12.38,18.75
		c-3.89,6.55-7.83,13.65-11.83,21.3c-4.01,7.65-8.07,15.72-12.2,24.21c-4.13,6.07-9.23,14.81-15.29,26.22
		c-6.07,11.41-12.69,24.16-19.84,38.23c-7.16,14.08-14.57,28.65-22.21,43.7c-7.65,15.05-14.99,29.19-22.03,42.42
		c-7.04,13.23-13.65,24.76-19.85,34.59c-6.19,9.83-11.35,16.57-15.48,20.21c-1.95,1.21-3.95,1.76-6.01,1.64
		c-2.07-0.12-3.7-1.4-4.92-3.82c-0.97-5.1-0.91-12.38,0.18-21.85c1.09-9.47,2.91-19.72,5.46-30.77c2.55-11.04,5.58-22.39,9.1-34.05
		c3.52-11.65,7.1-22.33,10.74-32.04c0.48-0.97,0.91-1.94,1.28-2.91c0.36-0.97,0.91-1.82,1.64-2.55
		c8.49-10.43,16.93-22.63,25.31-36.59c8.38-13.96,16.14-28.7,23.3-44.24c7.16-15.53,13.29-31.32,18.39-47.34
		c5.1-16.02,8.49-31.19,10.19-45.52c0.73-6.55-1.58-11.04-6.92-13.47c-2.67-1.21-5.28-1.33-7.83-0.37
		c-2.55,0.97-4.68,2.55-6.37,4.73c-4.61,5.1-8.98,10.62-13.11,16.57c-4.13,5.95-8.26,12.2-12.38,18.75
		c-8.98,15.05-18.09,32.53-27.31,52.44c-9.23,19.91-17.79,40.54-25.67,61.9c-7.89,21.36-14.69,42.55-20.39,63.54
		c-5.7,21-9.65,40.24-11.83,57.71c-1.94,15.05-2.18,29.98-0.73,44.79c0.97,6.31,4.25,11.35,9.83,15.11
		c5.58,3.76,11.53,5.76,17.84,6.01c6.79-0.73,13.11-3.77,18.93-9.1c3.4-3.16,8.19-10.44,14.38-21.85
		c6.19-11.41,12.86-24.76,20.03-40.05c7.16-15.29,14.57-31.32,22.21-48.06c7.65-16.75,14.62-32.04,20.94-45.88
		c-8.5,23.07-15.9,45.88-22.21,68.46c-6.32,22.58-10.56,42.97-12.74,61.17c-1.95,15.05-2.19,29.98-0.73,44.79
		c0.97,6.31,4.24,11.35,9.83,15.11c5.58,3.76,11.53,5.76,17.84,6.01c6.79-0.73,13.11-3.77,18.94-9.1
		c8.01-7.28,16.08-16.88,24.21-28.77c8.13-11.9,15.78-24.16,22.94-36.78c7.16-12.62,13.59-24.64,19.3-36.05
		c5.7-11.41,10.38-20.15,14.02-26.22c0.73-2.19,0.55-4.01-0.55-5.46c-1.09-1.46-2.61-1.21-4.55,0.73c-0.73,0.97-1.58,2-2.55,3.09
		c-0.97,1.09-1.7,2.13-2.18,3.09c-4.13,6.32-9.53,14.26-16.2,23.85c-6.68,9.59-13.84,19.36-21.48,29.31
		c-7.65,9.96-15.42,19.54-23.3,28.77c-7.89,9.22-15.11,16.75-21.67,22.58c-1.95,1.21-3.4,2.3-4.37,3.28
		c-0.97,0.97-2.07,0.24-3.28-2.19c-0.73-3.4-0.67-8.56,0.18-15.48C1703.12,330.54,1704.51,322.58,1706.46,313.6z M1774.18,118.43
		c8.25-18.45,17.6-36.41,28.04-53.89c-0.73,3.89-2.31,9.05-4.73,15.48c-2.43,6.44-5.22,13.29-8.37,20.57
		c-3.16,7.28-6.55,14.81-10.2,22.58c-3.64,7.77-7.28,14.99-10.92,21.67c-3.64,6.68-7.1,12.62-10.38,17.84
		c-3.28,5.22-6.01,8.92-8.19,11.11C1757.67,155.33,1765.93,136.88,1774.18,118.43z M1664.04,142.46
		c4.97-11.65,10.07-23.49,15.29-35.5c5.22-12.02,10.62-23.73,16.2-35.14c5.58-11.41,10.92-21.48,16.02-30.22
		c-0.73,4.13-2.49,9.9-5.28,17.3c-2.79,7.41-6.07,15.6-9.83,24.58c-3.77,8.98-7.89,18.33-12.38,28.04
		c-4.49,9.71-8.86,18.81-13.11,27.31c-4.25,8.5-8.19,15.9-11.83,22.21c-3.64,6.32-6.55,10.56-8.74,12.74
		C1654.51,164.55,1659.06,154.11,1664.04,142.46z"/>
</g>
</svg>
